<?xml version="1.0" encoding="UTF-8"?>
<svg width="200px" height="200px" viewBox="0 0 250 250" version="1.1" xmlns="http://www.w3.org/2000/svg">
    <title>logo</title>
    <desc>Created with Sketch.</desc>
    <defs></defs>
    <g id="Page-1" stroke="none" stroke-width="1" fill="none" fill-rule="evenodd">
        <g id="logo" fill-rule="nonzero" fill="#FFFFFF">
            <path d="M177.65,186.58 C177.58991,189.15066 175.471143,191.193598 172.9,191.16 L133.32,191.16 C125.698042,191.203707 118.715485,195.428577 115.14,202.16 C113.473596,204.992807 110.426556,206.725811 107.14,206.71 L103.7,206.71 C100.215896,206.653452 97.0244497,204.749248 95.32,201.71 C91.780227,195.199184 84.9507837,191.158366 77.54,191.19 L34.66,191.19 C32.0888569,191.223598 29.9700896,189.18066 29.91,186.61 L29.91,130.11 C29.8696361,128.886694 30.3206,127.698126 31.1622761,126.809481 C32.0039523,125.920837 33.1663052,125.406059 34.39,125.38 L77.51,125.38 C85.1331965,125.419315 92.1178313,129.645441 95.69,136.38 C97.3574338,139.210475 100.404954,140.939943 103.69,140.92 L107.13,140.92 C110.615846,140.869588 113.810123,138.963695 115.51,135.92 C119.051414,129.410766 125.879813,125.370566 133.29,125.4 L173.08,125.4 C174.299778,125.389288 175.472996,125.867735 176.337419,126.7284 C177.201842,127.589065 177.685397,128.760187 177.68,129.98 L177.65,186.58 Z M182.65,17.58 C182.222765,17.5174506 181.79177,17.4840401 181.36,17.48 C178.823803,17.4776931 176.424363,18.6295715 174.84,20.61 L152.73,47.54 C149.320232,50.825729 144.76522,52.6549072 140.03,52.64 C130.03,52.64 121.79,44.72 121.79,34.95 C121.79,16.39 107.4,1.51 88.86,0.02 C88.0185748,0.00927584871 87.2080547,0.336732797 86.6102156,0.928931938 C86.0123765,1.52113108 85.6772517,2.3285109 85.68,3.17 L85.68,25.79 L85.68,34.95 C85.6642202,39.6750375 83.7651508,44.1987756 80.4034429,47.5191895 C77.041735,50.8396034 72.4948717,52.6826185 67.77,52.64 C62.9901108,52.6561923 58.3878561,50.8296165 54.92,47.54 L32.8,20.61 C31.2175116,18.6272158 28.8168632,17.4747573 26.28,17.48 C25.8515665,17.4844308 25.4239235,17.5178404 25,17.58 C10.7310038,19.5368447 0.155980121,31.818624 0.34,46.22 L0.34,191 C0.34,207 13.59,220 29.92,220 L177.72,220 C194.06,220 207.31,207 207.31,191 L207.31,46.23 C207.489543,31.8302539 196.916719,19.5510302 182.65,17.59 L182.65,17.58 Z" id="Shape"></path>
        </g>
    </g>
</svg>